# xmcd
# Track frame offsets:
# 150
# 18779
# 37632
#
# Disc length: 742 seconds
# Revision: 0
# Processed by: cddbd v1.5.1PL0 Copyright (c) Steve Scherf et al.
# Submitted via: VisiTrax 2.9.10.228 - For more info visit www.synapsa.com
#
DISCID=0f02e403
DTITLE=Shania Twain - Forever And For Always
DYEAR=2002
DGENRE=Country
TTITLE0=Forever And For Always
TTITLE1=Man! I Feel Like A Woman
TTITLE2=Don´t Be Stupid
EXTD=
EXTT0=
EXTT1=
EXTT2=
PLAYORDER=
